<?xml version="1.0" encoding="utf-8"?>
<!-- Generator: Adobe Illustrator 16.0.0, SVG Export Plug-In . SVG Version: 6.00 Build 0)  -->
<!DOCTYPE svg PUBLIC "-//W3C//DTD SVG 1.1//EN" "http://www.w3.org/Graphics/SVG/1.1/DTD/svg11.dtd">
<svg version="1.1" id="Capa_1" xmlns="http://www.w3.org/2000/svg" xmlns:xlink="http://www.w3.org/1999/xlink" x="0px" y="0px"
	 width="500px" height="500px" viewBox="0 0 500 500" enable-background="new 0 0 500 500" xml:space="preserve">
<path fill="#FFFFFF" d="M250,6.131c-137.497,0-250,112.503-250,250c0,110.938,71.876,204.688,170.311,237.495
	c12.504,1.572,17.189-4.684,17.189-12.496c0-6.242,0-21.867,0-42.191c-70.312,15.625-84.374-32.807-84.374-32.807
	c-10.94-28.121-28.129-35.934-28.129-35.934c-23.438-15.625,1.564-15.625,1.564-15.625c25.001,1.557,39.062,24.994,39.062,24.994
	c21.874,37.506,57.815,26.564,73.44,20.309c1.564-15.625,9.376-26.55,15.625-32.807c-56.251-6.256-114.067-28.121-114.067-123.436
	c0-26.565,9.376-50.003,25.001-67.192c-3.121-6.249-10.933-31.25,3.128-65.621c0,0,20.31-6.249,68.749,25.001
	c20.31-6.256,40.626-7.813,62.5-7.813c21.881,0,42.19,3.121,62.5,7.813c48.432-32.814,68.756-26.566,68.756-26.566
	c14.054,34.378,4.685,59.373,3.113,65.628c15.625,17.182,25.009,39.062,25.009,67.185c0,95.306-57.815,117.187-114.06,123.444
	c9.369,7.812,17.182,23.438,17.182,46.875c0,32.806,0,60.929,0,68.741c0,6.256,4.685,14.068,17.182,12.496
	C428.131,460.819,500,367.069,500,256.131C500,118.634,387.497,6.131,250,6.131z"/>
</svg>
