<?xml version="1.0" encoding="utf-8"?>
<!-- Generator: Adobe Illustrator 16.0.0, SVG Export Plug-In . SVG Version: 6.00 Build 0)  -->
<!DOCTYPE svg PUBLIC "-//W3C//DTD SVG 1.1//EN" "http://www.w3.org/Graphics/SVG/1.1/DTD/svg11.dtd">
<svg version="1.1" id="Capa_1" xmlns="http://www.w3.org/2000/svg" xmlns:xlink="http://www.w3.org/1999/xlink" x="0px" y="0px"
	 width="500px" height="500px" viewBox="0 0 500 500" enable-background="new 0 0 500 500" xml:space="preserve">
<g>
	<rect x="9.367" y="165.617" fill="#FFFFFF" width="103.137" height="334.383"/>
	<path fill="#FFFFFF" d="M59.371,0C28.121,0,0,28.121,0,59.371c0,34.379,28.121,62.5,59.371,62.5
		c34.379,0,59.371-28.121,59.371-62.5C118.742,28.121,93.75,0,59.371,0z"/>
	<path fill="#FFFFFF" d="M375,159.379c-49.988,0-84.383,28.121-96.863,53.113v-46.875H178.133V500H281.25V334.383
		c0-43.766,9.367-84.383,62.5-84.383s53.133,49.988,53.133,87.492V500H500V318.758C500,228.117,481.262,159.379,375,159.379z"/>
</g>
</svg>
