<?xml version="1.0" encoding="utf-8"?>
<!-- Generator: Adobe Illustrator 16.0.0, SVG Export Plug-In . SVG Version: 6.00 Build 0)  -->
<!DOCTYPE svg PUBLIC "-//W3C//DTD SVG 1.1//EN" "http://www.w3.org/Graphics/SVG/1.1/DTD/svg11.dtd">
<svg version="1.1" id="Capa_1" xmlns="http://www.w3.org/2000/svg" xmlns:xlink="http://www.w3.org/1999/xlink" x="0px" y="0px"
	 width="500px" height="500px" viewBox="0 0 500 500" enable-background="new 0 0 500 500" xml:space="preserve">
<g>
	<path fill="#FFFFFF" d="M484.473,54.347c-18.651,12.419-43.49,21.73-65.234,24.839C400.616,60.55,372.654,48.13,344.722,48.13
		c-55.895,0-102.493,46.583-102.493,102.493c0,6.202,0,15.528,3.108,21.73c-86.95-3.108-161.496-43.475-211.173-105.586
		c-6.217,15.528-12.434,34.164-12.434,52.801c0,34.149,18.636,65.205,46.583,83.841c-18.622,0-34.149-6.202-46.583-12.419
		c0,49.692,34.164,90.073,80.748,99.383c-9.311,3.094-18.637,3.094-27.947,3.094c-6.217,0-12.419-3.094-18.637-3.094
		c15.528,40.367,52.801,71.424,96.276,71.424c-34.164,27.961-80.748,43.488-127.332,43.488c-9.311,0-15.528,0-24.839,0
		c43.476,31.057,96.276,46.584,155.279,46.584c186.32,0,288.827-155.279,288.827-288.827c0-3.109,0-9.326,0-12.419
		c18.622-12.434,37.244-31.056,55.895-55.909c-18.65,6.217-37.272,12.419-59.018,15.528
		C459.634,97.822,478.256,79.186,484.473,54.347z"/>
</g>
</svg>
