<?xml version="1.0" encoding="utf-8"?>
<!-- Generator: Adobe Illustrator 16.0.0, SVG Export Plug-In . SVG Version: 6.00 Build 0)  -->
<!DOCTYPE svg PUBLIC "-//W3C//DTD SVG 1.1//EN" "http://www.w3.org/Graphics/SVG/1.1/DTD/svg11.dtd">
<svg version="1.1" id="Capa_1" xmlns="http://www.w3.org/2000/svg" xmlns:xlink="http://www.w3.org/1999/xlink" x="0px" y="0px"
	 width="500px" height="500px" viewBox="0 0 500 500" enable-background="new 0 0 500 500" xml:space="preserve">
<g>
	<path fill="#FFFFFF" d="M361.372,156.255l-86.831-6.919l-0.596-0.024c-10.37,0-18.535,4.29-23.945,12.126
		c-5.41-7.836-13.576-12.126-23.945-12.126h-0.298l-87.127,6.943c-8.375,0.207-15.129,7.77-15.129,17.037v151.79
		c0,9.396,6.945,17.041,15.482,17.041h0.522l71.043-9.946c0.188-0.004,0.375-0.007,0.562-0.007c11.565,0,22.111,8.357,28.413,13.354
		c4.204,3.33,6.52,5.166,9.966,5.166c0.173,0,0.342-0.016,0.512-0.024c0.168,0.01,0.335,0.024,0.507,0.024c0.001,0,0.003,0,0.004,0
		c3.446,0,5.764-1.836,9.967-5.168c6.301-4.992,16.849-13.352,28.412-13.352c0.188,0,0.375,0.003,0.562,0.007l71.044,9.946h0.521
		c8.536,0,15.481-7.645,15.481-17.041v-151.79C376.5,164.025,369.745,156.462,361.372,156.255z M211.11,317.169
		c-0.497,0-0.991,0.011-1.492,0.029l-0.377,0.015l-70.141,9.819c-0.248-0.29-0.601-0.95-0.601-1.951v-151.79
		c0-1.124,0.445-1.819,0.687-2.041l87.143-6.937c10.731,0.148,16.171,9.003,16.171,26.325v138.288
		C234.777,323.393,223.856,317.169,211.11,317.169z M361.5,325.081c0,1.001-0.354,1.661-0.602,1.951l-69.767-9.769l-0.751-0.066
		c-13.343-0.521-24.857,5.979-32.882,11.729V190.639c0-17.322,5.44-26.177,16.171-26.325l86.752,6.913l0.391,0.024
		c0.241,0.223,0.688,0.917,0.688,2.041V325.081z"/>
	<path fill="#FFFFFF" d="M250,0C111.923,0,0,111.922,0,250c0,138.077,111.923,250,250,250s250-111.923,250-250
		C500,111.922,388.077,0,250,0z M416.172,416.172c-21.586,21.587-46.719,38.533-74.701,50.367C312.508,478.789,281.732,485,250,485
		c-31.733,0-62.508-6.211-91.471-18.461c-27.982-11.834-53.115-28.78-74.702-50.367c-21.586-21.586-38.532-46.719-50.367-74.701
		C21.211,312.508,15,281.732,15,250c0-31.733,6.211-62.508,18.46-91.471c11.835-27.982,28.781-53.115,50.367-74.702
		s46.72-38.532,74.702-50.367C187.492,21.211,218.267,15,250,15c31.732,0,62.508,6.211,91.471,18.46
		c27.982,11.835,53.115,28.781,74.701,50.367c21.587,21.586,38.533,46.719,50.367,74.702C478.789,187.492,485,218.267,485,250
		c0,31.732-6.211,62.508-18.461,91.471C454.705,369.453,437.759,394.586,416.172,416.172z"/>
</g>
</svg>
