<?xml version="1.0" encoding="utf-8"?>
<!-- Generator: Adobe Illustrator 16.0.0, SVG Export Plug-In . SVG Version: 6.00 Build 0)  -->
<!DOCTYPE svg PUBLIC "-//W3C//DTD SVG 1.1//EN" "http://www.w3.org/Graphics/SVG/1.1/DTD/svg11.dtd">
<svg version="1.1" id="Capa_1" xmlns="http://www.w3.org/2000/svg" xmlns:xlink="http://www.w3.org/1999/xlink" x="0px" y="0px"
	 width="500px" height="500px" viewBox="0 0 500 500" enable-background="new 0 0 500 500" xml:space="preserve">
<g>
	<path fill="#666666" d="M250,0C111.923,0,0,111.922,0,250c0,138.077,111.923,250,250,250s250-111.923,250-250
		C500,111.922,388.077,0,250,0z M416.172,416.172c-21.586,21.587-46.719,38.533-74.701,50.367C312.508,478.789,281.733,485,250,485
		c-31.733,0-62.508-6.211-91.471-18.461c-27.982-11.834-53.115-28.78-74.702-50.367c-21.586-21.586-38.532-46.719-50.367-74.701
		C21.211,312.508,15,281.733,15,250s6.211-62.508,18.46-91.471c11.835-27.982,28.781-53.115,50.367-74.702
		s46.72-38.532,74.702-50.367C187.492,21.211,218.267,15,250,15c31.733,0,62.508,6.211,91.471,18.46
		c27.982,11.835,53.115,28.781,74.701,50.367c21.587,21.586,38.533,46.719,50.367,74.702C478.789,187.492,485,218.267,485,250
		s-6.211,62.508-18.461,91.471C454.705,369.453,437.759,394.586,416.172,416.172z"/>
	<path fill="#666666" d="M360.5,156h-221c-10.201,0-18.5,8.299-18.5,18.5v151c0,10.201,8.299,18.5,18.5,18.5h221
		c10.201,0,18.5-8.299,18.5-18.5v-151C379,164.299,370.701,156,360.5,156z M345.54,171l-84.215,66.987
		c-7.678,6.105-20.363,6.331-27.696,0.494L148.791,171H345.54z M360.5,329h-221c-1.93,0-3.5-1.57-3.5-3.5V179.993l88.29,70.226
		c6.301,5.015,14.423,7.513,22.622,7.513c8.482,0,17.045-2.675,23.75-8.003L364,175.483V325.5C364,327.43,362.43,329,360.5,329z"/>
</g>
</svg>
