<?xml version="1.0" encoding="utf-8"?>
<!-- Generator: Adobe Illustrator 16.0.0, SVG Export Plug-In . SVG Version: 6.00 Build 0)  -->
<!DOCTYPE svg PUBLIC "-//W3C//DTD SVG 1.1//EN" "http://www.w3.org/Graphics/SVG/1.1/DTD/svg11.dtd">
<svg version="1.1" id="Capa_1" xmlns="http://www.w3.org/2000/svg" xmlns:xlink="http://www.w3.org/1999/xlink" x="0px" y="0px"
	 width="500px" height="500px" viewBox="0 0 500 500" enable-background="new 0 0 500 500" xml:space="preserve">
<g>
	<g>
		<path fill="#D4D4D4" d="M250,308.406c-4.142,0-7.5-3.357-7.5-7.5v-154c0-4.142,3.358-7.5,7.5-7.5c4.143,0,7.5,3.358,7.5,7.5v154
			C257.5,305.049,254.143,308.406,250,308.406z"/>
	</g>
	<g>
		<path fill="#D4D4D4" d="M250,315.488c-1.919,0-3.839-0.732-5.303-2.195l-65.583-65.584c-2.929-2.928-2.929-7.677,0-10.606
			s7.678-2.929,10.606,0l65.583,65.583c2.929,2.93,2.929,7.678,0,10.607C253.839,314.756,251.919,315.488,250,315.488z"/>
	</g>
	<g>
		<path fill="#D4D4D4" d="M250,315.488c-1.919,0-3.839-0.732-5.303-2.197c-2.93-2.93-2.93-7.678,0-10.607l65.581-65.58
			c2.93-2.93,7.678-2.929,10.607,0c2.929,2.929,2.929,7.677,0,10.607l-65.582,65.58C253.839,314.756,251.919,315.488,250,315.488z"
			/>
	</g>
	<g>
		<path fill="#D4D4D4" d="M315.582,350.594H184.418c-4.143,0-7.5-3.357-7.5-7.5s3.357-7.5,7.5-7.5h131.164
			c4.143,0,7.5,3.357,7.5,7.5S319.725,350.594,315.582,350.594z"/>
	</g>
</g>
<path fill="#D4D4D4" d="M250,0C111.923,0,0,111.922,0,250c0,138.077,111.923,250,250,250s250-111.923,250-250
	C500,111.922,388.077,0,250,0z M416.172,416.172c-21.586,21.587-46.719,38.533-74.701,50.367C312.508,478.789,281.733,485,250,485
	c-31.733,0-62.508-6.211-91.471-18.461c-27.982-11.834-53.115-28.78-74.702-50.367c-21.586-21.586-38.532-46.719-50.367-74.701
	C21.211,312.508,15,281.733,15,250s6.211-62.508,18.46-91.471c11.835-27.982,28.781-53.115,50.367-74.702
	s46.72-38.532,74.702-50.367C187.492,21.211,218.267,15,250,15c31.733,0,62.508,6.211,91.471,18.46
	c27.982,11.835,53.115,28.781,74.701,50.367c21.587,21.586,38.533,46.719,50.367,74.702C478.789,187.492,485,218.267,485,250
	s-6.211,62.508-18.461,91.471C454.705,369.453,437.759,394.586,416.172,416.172z"/>
</svg>
