<?xml version="1.0" encoding="utf-8"?>
<!-- Generator: Adobe Illustrator 16.0.0, SVG Export Plug-In . SVG Version: 6.00 Build 0)  -->
<!DOCTYPE svg PUBLIC "-//W3C//DTD SVG 1.1//EN" "http://www.w3.org/Graphics/SVG/1.1/DTD/svg11.dtd">
<svg version="1.1" id="Capa_1" xmlns="http://www.w3.org/2000/svg" xmlns:xlink="http://www.w3.org/1999/xlink" x="0px" y="0px"
	 width="500px" height="500px" viewBox="0 0 500 500" enable-background="new 0 0 500 500" xml:space="preserve">
<path fill="#FFFFFF" d="M249,499C111.503,499-1,386.497-1,249S111.503-1,249-1s250,112.503,250,250S386.497,499,249,499z
	 M459.938,283.378c-7.812-3.128-65.628-20.31-132.812-9.384c28.122,76.568,39.062,139.068,42.19,151.565
	C416.19,394.31,450.568,342.75,459.938,283.378z M331.81,445.869c-3.128-18.738-15.625-84.366-45.304-162.491h-1.571
	c-120.308,42.19-164.062,125-167.183,132.812c35.935,28.122,81.246,45.304,131.249,45.304
	C278.693,463.065,306.815,456.81,331.81,445.869z M89.622,392.753c4.692-7.812,64.064-104.69,173.446-140.625
	c3.113-1.563,6.241-1.563,7.812-3.128c-4.699-12.497-10.94-25.001-17.196-35.935c-106.247,31.25-209.374,31.25-218.75,29.686
	c0,1.564,0,4.685,0,6.249C34.935,303.688,56.815,353.69,89.622,392.753z M39.626,205.253c9.376,0,96.871,0,196.876-26.565
	c-35.942-62.5-73.44-115.624-79.689-123.436C98.999,84.938,53.688,139.625,39.626,205.253z M198.997,41.19
	c6.256,7.812,45.318,60.936,79.696,125c76.554-28.129,107.804-71.876,112.488-76.568C353.69,56.815,303.688,36.499,249,36.499
	C231.811,36.499,214.622,38.062,198.997,41.19z M414.619,114.624c-4.685,6.249-40.619,51.567-118.744,84.374
	c4.685,10.94,9.369,20.317,14.068,31.25c1.557,3.128,3.113,7.812,4.685,10.94c70.312-9.376,142.182,4.685,148.438,6.249
	C461.494,197.44,444.312,150.565,414.619,114.624z"/>
</svg>
