<?xml version="1.0" encoding="utf-8"?>
<!-- Generator: Adobe Illustrator 16.0.0, SVG Export Plug-In . SVG Version: 6.00 Build 0)  -->
<!DOCTYPE svg PUBLIC "-//W3C//DTD SVG 1.1//EN" "http://www.w3.org/Graphics/SVG/1.1/DTD/svg11.dtd">
<svg version="1.1" id="Layer_1" xmlns="http://www.w3.org/2000/svg" xmlns:xlink="http://www.w3.org/1999/xlink" x="0px" y="0px"
	 width="1250px" height="179.699px" viewBox="0 0 1250 179.699" enable-background="new 0 0 1250 179.699" xml:space="preserve">
<g>
	<path fill="#1A1A1A" d="M0.447,4.347h63.52c8.855,0,17.228,0.805,25.117,2.414c7.887,1.611,14.774,4.387,20.65,8.334
		c5.877,3.947,10.547,9.26,14.009,15.938c3.462,6.688,5.194,15.1,5.194,25.242c0,9.984-1.609,18.354-4.829,25.115
		c-3.223,6.762-7.65,12.16-13.28,16.188c-5.643,4.021-12.322,6.883-20.05,8.568c-7.728,1.689-16.104,2.537-25.118,2.537H38.124
		v66.664H0.447V4.347z M38.125,76.8h25.12c3.38,0,6.641-0.32,9.78-0.963c3.14-0.644,5.954-1.732,8.455-3.265
		c2.497-1.528,4.503-3.619,6.038-6.276c1.525-2.658,2.296-5.996,2.296-10.021c0-4.348-1.01-7.854-3.023-10.506
		c-2.014-2.662-4.585-4.715-7.725-6.164c-3.142-1.445-6.644-2.368-10.507-2.776c-3.866-0.396-7.573-0.604-11.112-0.604H38.125
		L38.125,76.8L38.125,76.8z"/>
	<path fill="#1A1A1A" d="M125.538,89.845c0-13.686,2.452-26.086,7.357-37.197c4.909-11.106,11.749-20.562,20.533-28.377
		c8.78-7.805,19.195-13.803,31.251-17.994C196.725,2.089,209.894,0,224.188,0c14.292,0,27.459,2.091,39.513,6.276
		c12.046,4.191,22.466,10.189,31.247,17.994c8.784,7.812,15.621,17.271,20.529,28.377c4.907,11.111,7.356,23.514,7.356,37.197
		c0,13.681-2.45,26.084-7.356,37.191c-4.908,11.109-11.745,20.571-20.529,28.381c-8.781,7.811-19.201,13.812-31.247,17.99
		c-12.054,4.189-25.221,6.285-39.513,6.285c-14.293,0-27.463-2.096-39.509-6.285c-12.056-4.182-22.471-10.184-31.251-17.99
		c-8.784-7.81-15.624-17.271-20.533-28.381C127.99,115.929,125.538,103.526,125.538,89.845z M167.372,89.845
		c0,8.058,1.331,15.42,4.003,22.094c2.667,6.689,6.495,12.484,11.493,17.396c4.989,4.913,10.976,8.738,17.947,11.475
		c6.972,2.742,14.761,4.101,23.372,4.101c8.604,0,16.396-1.354,23.374-4.101c6.971-2.733,12.95-6.562,17.944-11.475
		c4.99-4.91,8.824-10.705,11.491-17.396c2.669-6.674,4.004-14.036,4.004-22.094c0-7.891-1.335-15.217-4.004-21.979
		c-2.667-6.764-6.501-12.6-11.491-17.512c-4.994-4.911-10.974-8.732-17.944-11.471c-6.979-2.738-14.767-4.106-23.374-4.106
		c-8.611,0-16.4,1.368-23.372,4.106c-6.972,2.736-12.958,6.561-17.947,11.471c-4.998,4.912-8.827,10.748-11.493,17.512
		C168.703,74.628,167.372,81.957,167.372,89.845z"/>
	<path fill="#1A1A1A" d="M322.834,4.347h66.183c8.694,0,16.941,0.844,24.754,2.533c7.811,1.693,14.647,4.51,20.531,8.455
		c5.873,3.944,10.541,9.26,14.011,15.938c3.458,6.688,5.188,15.017,5.188,25c0,12.078-3.141,22.34-9.418,30.791
		c-6.281,8.455-15.46,13.812-27.533,16.066l36.951,72.217h-44.816l-29.57-68.354h-18.596v68.354h-37.686L322.834,4.347
		L322.834,4.347z M360.518,75.113h22.218c3.384,0,6.964-0.122,10.749-0.359c3.778-0.24,7.205-0.97,10.264-2.178
		c3.062-1.208,5.595-3.1,7.608-5.675c2.011-2.576,3.018-6.199,3.018-10.867c0-4.349-0.883-7.808-2.651-10.388
		c-1.774-2.573-4.028-4.549-6.765-5.916c-2.745-1.367-5.883-2.297-9.42-2.777c-3.542-0.48-7.003-0.729-10.388-0.729h-24.632
		L360.518,75.113L360.518,75.113z"/>
	<path fill="#1A1A1A" d="M453.502,4.347h37.68v71.004l66.422-71.004h49.269l-76.078,79.457l75.607,91.543H560.74l-69.561-81.153
		v81.153H453.5L453.502,4.347L453.502,4.347z"/>
	<path fill="#1A1A1A" d="M606.401,4.347h37.673v171h-37.673V4.347z"/>
	<path fill="#1A1A1A" d="M765.08,48.784c-3.705-4.503-8.256-7.97-13.65-10.386c-5.385-2.413-11.631-3.618-18.711-3.618
		c-7.092,0-13.646,1.368-19.686,4.106c-6.033,2.736-11.273,6.561-15.697,11.471c-4.438,4.912-7.895,10.748-10.389,17.512
		c-2.496,6.762-3.742,14.089-3.742,21.979c0,8.058,1.246,15.42,3.742,22.095c2.492,6.688,5.914,12.483,10.271,17.396
		c4.342,4.914,9.451,8.738,15.332,11.475c5.875,2.742,12.195,4.101,18.961,4.101c7.723,0,14.572-1.599,20.523-4.832
		c5.957-3.212,10.873-7.718,14.734-13.519l31.395,23.429c-7.238,10.146-16.416,17.625-27.521,22.458
		c-11.113,4.83-22.551,7.25-34.299,7.25c-13.363,0-25.684-2.096-36.957-6.285c-11.271-4.182-21.012-10.184-29.227-17.99
		c-8.207-7.81-14.613-17.271-19.197-28.379c-4.598-11.109-6.891-23.515-6.891-37.193c0-13.686,2.293-26.086,6.891-37.197
		c4.584-11.104,10.99-20.562,19.197-28.376c8.215-7.806,17.953-13.804,29.227-17.995c11.273-4.188,23.594-6.273,36.957-6.273
		c4.83,0,9.857,0.439,15.086,1.323c5.23,0.888,10.393,2.294,15.467,4.229c5.068,1.928,9.938,4.509,14.613,7.728
		c4.66,3.226,8.848,7.167,12.551,11.835L765.08,48.784z"/>
	<path fill="#1A1A1A" d="M785.877,89.845c0-13.686,2.297-26.086,6.885-37.197c4.596-11.106,10.988-20.562,19.207-28.377
		c8.207-7.805,17.947-13.803,29.217-17.994C852.457,2.089,864.771,0,878.137,0c13.367,0,25.688,2.091,36.955,6.276
		c11.271,4.191,21.018,10.189,29.225,17.994c8.219,7.812,14.615,17.271,19.207,28.377c4.582,11.111,6.883,23.514,6.883,37.197
		c0,13.681-2.301,26.084-6.883,37.191c-4.592,11.109-10.988,20.571-19.207,28.381c-8.207,7.811-17.951,13.812-29.225,17.99
		c-11.27,4.189-23.588,6.285-36.955,6.285c-13.365,0-25.682-2.096-36.951-6.285c-11.27-4.182-21.01-10.184-29.217-17.99
		c-8.219-7.81-14.611-17.271-19.207-28.381C788.174,115.929,785.877,103.526,785.877,89.845z M825.004,89.845
		c0,8.058,1.242,15.42,3.744,22.094c2.492,6.689,6.074,12.484,10.746,17.396c4.666,4.913,10.268,8.738,16.783,11.475
		c6.523,2.742,13.809,4.101,21.859,4.101c8.055,0,15.342-1.354,21.863-4.101c6.516-2.733,12.109-6.562,16.779-11.475
		c4.672-4.91,8.252-10.705,10.75-17.396c2.498-6.674,3.748-14.036,3.748-22.094c0-7.891-1.25-15.217-3.748-21.979
		c-2.498-6.764-6.078-12.6-10.75-17.512c-4.67-4.911-10.268-8.732-16.779-11.471c-6.521-2.738-13.812-4.106-21.863-4.106
		c-8.053,0-15.338,1.368-21.859,4.106c-6.516,2.736-12.117,6.561-16.783,11.471c-4.672,4.912-8.254,10.748-10.746,17.512
		C826.246,74.628,825.004,81.957,825.004,89.845z"/>
	<path fill="#1A1A1A" d="M970.404,4.347h51.205l72.699,118.828h0.479V4.347h37.682v171h-49.273L1008.57,53.616h-0.486v121.731
		h-37.68V4.347z"/>
	<path fill="#1A1A1A" d="M1224.361,46.13c-3.062-3.865-7.205-6.724-12.439-8.576c-5.238-1.85-10.188-2.774-14.854-2.774
		c-2.736,0-5.551,0.321-8.445,0.963c-2.902,0.646-5.643,1.653-8.221,3.021c-2.574,1.373-4.666,3.183-6.275,5.433
		c-1.617,2.261-2.412,4.995-2.412,8.214c0,5.152,1.924,9.102,5.789,11.834c3.867,2.742,8.738,5.074,14.613,7.006
		c5.877,1.934,12.193,3.864,18.965,5.797c6.758,1.93,13.074,4.672,18.955,8.215c5.877,3.543,10.752,8.291,14.609,14.252
		c3.877,5.961,5.801,13.926,5.801,23.912c0,9.5-1.771,17.789-5.314,24.871c-3.543,7.086-8.322,12.961-14.363,17.631
		c-6.041,4.668-13.051,8.133-21.02,10.387c-7.975,2.253-16.385,3.384-25.234,3.384c-11.109,0-21.418-1.698-30.918-5.078
		c-9.498-3.377-12.924-4.226-21.125-11.795l21.367-34.087c3.863,5.15,8.729,9.136,14.611,11.951
		c5.873,2.816,11.951,4.223,18.232,4.223c3.061,0,6.162-0.354,9.299-1.086c3.141-0.725,5.953-1.811,8.455-3.252
		c2.498-1.454,4.506-3.297,6.035-5.561c1.527-2.26,2.295-4.908,2.295-7.975c0-5.152-1.975-9.213-5.918-12.193
		c-3.947-2.979-8.896-5.52-14.855-7.613c-5.957-2.084-12.395-4.174-19.322-6.277c-6.924-2.087-13.361-4.906-19.32-8.453
		c-5.961-3.531-10.906-8.205-14.854-14.006c-3.949-5.793-5.914-13.438-5.914-22.939c0-9.18,1.812-17.229,5.438-24.156
		c3.623-6.918,8.453-12.717,14.482-17.387c6.043-4.67,13.012-8.172,20.896-10.506c7.885-2.336,16.016-3.5,24.396-3.5
		c9.65,0,18.994,1.364,28.016,4.103c9.008,2.737,17.15,7.329,24.396,13.766L1224.361,46.13z"/>
	
		<ellipse transform="matrix(-0.0843 0.9964 -0.9964 -0.0843 370.2209 -54.0044)" fill="#1A1A1A" cx="209.925" cy="143.11" rx="16.497" ry="9.5"/>
	
		<ellipse transform="matrix(-0.0843 -0.9964 0.9964 -0.0843 115.9399 392.7432)" fill="#1A1A1A" cx="238.429" cy="143.099" rx="16.498" ry="9.499"/>
</g>
</svg>
