<?xml version="1.0" encoding="utf-8"?>
<!-- Generator: Adobe Illustrator 16.0.0, SVG Export Plug-In . SVG Version: 6.00 Build 0)  -->
<!DOCTYPE svg PUBLIC "-//W3C//DTD SVG 1.1//EN" "http://www.w3.org/Graphics/SVG/1.1/DTD/svg11.dtd">
<svg version="1.1" id="icon" xmlns="http://www.w3.org/2000/svg" xmlns:xlink="http://www.w3.org/1999/xlink" x="0px" y="0px"
	 width="4051px" height="399px" viewBox="0 0 4051 399" enable-background="new 0 0 4051 399" xml:space="preserve">
<path fill="#FFFFFF" d="M3752.898,372.351c48.4-3.3,49.5-4.4,49.5-35.2V58.85c0-30.801-1.1-31.9-49.5-35.2V7.699h277.752v90.2h-16.5
	c-7.701-57.2-20.352-70.95-83.051-70.95h-53.9c-17.6,0-20.35,2.2-20.35,19.8V179.85h77c46.75,0,48.949-13.2,53.9-47.3h16.5v116.051
	h-16.5c-4.951-34.65-7.15-47.852-53.9-47.852h-77V322.3c0,26.951,2.199,36.301,13.75,41.251c11.549,4.399,31.35,5.5,57.199,5.5
	c69.301,0,94.051-8.8,106.701-75.9h16.5l-6.6,95.15h-291.502V372.351z"/>
<path fill="#FFFFFF" d="M3226.174,372.352c48.4-3.301,49.5-4.4,49.5-35.201V58.85c0-30.801-1.1-31.9-49.5-35.2V7.7h160.601
	c96.251,0,129.251,41.25,129.251,94.05c0,52.251-37.95,86.901-89.65,96.801v1.1c58.301,14.301,68.2,51.15,74.801,100.102
	c4.949,37.398,13.75,68.199,56.65,72.6v15.949h-44.551c-32.45,0-53.351-12.1-61.601-47.299c-6.05-25.301-12.1-68.752-15.95-84.15
	c-9.35-37.4-34.649-47.852-67.649-47.852h-37.95v128.15c0,23.65,0,24.201,1.649,26.4c3.851,6.602,16.5,6.602,39.601,8.801v15.949
	h-145.201V372.352z M3373.575,189.75c53.35,0,83.6-25.3,83.6-83.051c0-64.9-46.2-79.75-86.9-79.75c-36.3,0-40.149,4.399-40.149,27.5
	V189.75H3373.575z"/>
<path fill="#FFFFFF" d="M2801.274,372.351c48.4-3.3,49.5-4.4,49.5-35.2V58.85c0-30.801-1.1-31.9-49.5-35.2V7.699h153.451v15.95
	c-47.851,3.3-49.5,4.399-49.5,35.2V337.15c0,30.8,1.649,31.9,49.5,35.2v15.95h-153.451V372.351z"/>
<path fill="#FFFFFF" d="M1600.324,7.699h317.352v91.3h-16.5c-6.601-59.95-18.15-72.05-82.501-72.05h-32.45V337.15
	c0,30.8,1.65,31.9,60.501,35.2v15.95h-175.451v-15.95c58.851-3.3,60.5-4.4,60.5-35.2V26.949h-32.45c-64.35,0-75.9,12.1-82.5,72.05
	h-16.5V7.699z"/>
<path fill="#FFFFFF" d="M998.099,372.351c35.2-3.3,40.15-4.949,58.851-29.7c22.55-30.25,66.551-97.9,98.45-144.101l-88-140.251
	c-18.7-29.7-25.3-33.55-59.95-34.649V7.699h141.9v15.95l-26.399,2.75c-10.45,1.1-11.551,7.699-4.95,18.699l68.75,107.801h1.1
	c26.4-37.95,50.601-74.8,70.951-108.9c6.6-11,6.6-17.05-4.95-18.15l-26.4-2.199V7.699h121.551v15.95
	c-32.45,1.649-39.601,4.399-63.25,33.55c-23.65,29.15-55.551,72.601-85.801,117.15l107.801,166.651
	c15.95,25.3,22.55,28.6,62.15,31.35v15.95H1213.7v-15.95l30.25-3.3c10.45-1.101,15.4-5.5,8.8-15.95l-83.6-132.551h-1.101
	c-29.15,45.1-56.101,89.65-79.75,133.101c-5.5,8.8-2.2,13.751,6.05,14.851l35.2,3.85v15.95H998.099V372.351z"/>
<path fill="#FFFFFF" d="M570.274,372.351c48.4-3.3,49.5-4.4,49.5-35.2V58.85c0-30.801-1.1-31.9-49.5-35.2V7.699h153.451v15.95
	c-47.851,3.3-49.5,4.399-49.5,35.2V337.15c0,30.8,1.65,31.9,49.5,35.2v15.95H570.274V372.351z"/>
<path fill="#FFFFFF" d="M0,372.351c48.4-3.3,49.501-4.4,49.501-35.2V58.85c0-30.801-1.101-31.9-49.501-35.2V7.699h279.402v88
	h-16.501c-7.699-56.101-20.35-68.75-84.15-68.75h-54.45c-18.149,0-20.35,1.649-20.35,19.8V187.55h77c46.75,0,48.95-13.2,53.9-48.4
	h16.5v117.701h-16.5c-4.95-35.201-7.15-48.4-53.9-48.4h-77v128.7c0,30.8,1.649,31.9,58.3,35.2v15.95H0V372.351z"/>
<g>
	<path fill="#FFFFFF" d="M2348.5,0C2238.319,0,2149,89.319,2149,199.5c0,110.182,89.319,199.5,199.5,199.5S2548,309.682,2548,199.5
		C2548,89.319,2458.681,0,2348.5,0z M2358.035,364.071c-86.175,0-156.035-69.859-156.035-156.036
		C2202,121.859,2271.86,52,2358.035,52c86.176,0,156.035,69.859,156.035,156.035C2514.07,294.212,2444.211,364.071,2358.035,364.071
		z"/>
	<path fill="#FFFFFF" d="M2363.668,275.62c-11.189,11.191,52.223-35.702,61.281-53.286l50.621,22.381c0,0-3.73,33.568-22.381,61.812
		c0,0-30.905,27.177-74.601,24.511L2363.668,275.62z"/>
</g>
</svg>
