<?xml version="1.0" encoding="utf-8"?>
<!-- Generator: Adobe Illustrator 16.0.0, SVG Export Plug-In . SVG Version: 6.00 Build 0)  -->
<!DOCTYPE svg PUBLIC "-//W3C//DTD SVG 1.1//EN" "http://www.w3.org/Graphics/SVG/1.1/DTD/svg11.dtd">
<svg version="1.1" id="Layer_1" xmlns="http://www.w3.org/2000/svg" xmlns:xlink="http://www.w3.org/1999/xlink" x="0px" y="0px"
	 width="1441.414px" height="390px" viewBox="0 0 1441.414 390" enable-background="new 0 0 1441.414 390" xml:space="preserve">
<path fill="#1A1A1A" d="M21.36,214.748c-22.497-5.129-23.682-29.209-15.394-53.679c7.5-22.894,20.525-43.415,38.286-40.651
	c13.815,1.974,18.55,13.022,18.55,13.022l4.737-9.077c2.763-5.525,15.789-2.763,12.235,3.947
	c-0.396,0.79-5.921,18.154-11.842,40.656c-2.367,9.867-2.367,28.81-1.973,50.522c5.92-4.74,11.052-7.5,15.394-7.896
	c1.976-1.184,4.342,8.291,1.578,8.684c-5.524,3.16-11.052,7.896-16.575,13.424c0.786,24.865,2.364,52.1,1.576,73.018
	c-0.791,29.604-13.813,81.705-47.364,83.277C8.333,390.392-2.324,376.972,0.44,348.16c4.737-44.602,30.785-91.178,53.677-116.438
	c-0.788-22.895-1.976-38.289-1.976-38.289S39.123,218.693,21.36,214.748z M13.072,346.576c0,7.105-3.551,30.789,7.894,33.154
	c16.186,3.158,29.604-32.367,31.576-66.699c1.578-22.504,1.973-45.395,1.973-65.131C30.438,279.876,13.072,326.048,13.072,346.576z
	 M54.12,151.993c-1.185-3.16,0.395-18.945-8.288-20.525c-11.445-2.367-24.471,22.895-26.839,37.102
	c-2.763,14.604-5.92,35.524,4.342,35.524c19.341,0.396,34.734-52.102,34.734-52.102S54.515,153.571,54.12,151.993z"/>
<path fill="#1A1A1A" d="M106.21,146.069c-1.973,4.342-5.525,9.869-11.052,19.342c-2.368,3.555-8.289-3.945-4.735-11.051
	c2.367-4.342,3.551-7.5,7.499-13.814c1.578-2.369,0.79-1.58,0.79-9.473c0-12.63,3.947-26.84,11.05-26.051
	c5.922,0.396,9.079,9.867,8.686,12.631c0,3.551-3.946,7.498-1.976,9.473c1.578,1.974,4.344,0.789,5.527,0.394
	c2.366-1.183,10.657-7.498,19.733-2.368c5.524,3.159,3.553,13.025,3.553,14.211c-0.79,9.075-5.922,8.684-5.922,25.657
	c-0.396,16.966,1.581,30.786,17.368,30.786c18.942,0,36.706-31.972,46.179-48.55c3.159-6.313,9.079,2.369,1.185,18.158
	c-3.159,5.526-22.499,44.997-49.73,43.415c-29.604-1.578-31.183-31.967-31.183-39.467c-1.183-18.156,5.525-24.867,3.157-27.236
	c-4.34-3.551-4.34,2.764-9.472,2.764S107.789,142.519,106.21,146.069z"/>
<path fill="#1A1A1A" d="M258.549,146.069c3.553-6.312,8.687,2.764,0.396,18.553c-2.765,5.523-23.287,47.366-53.282,46.969
	c-35.917-0.789-40.259-29.209-39.471-50.125c0.791-20.92,19.733-63.153,41.442-49.733c16.185,10.657,7.104,29.603,1.578,43.812
	c-6.312,16.182-17.367,29.602-22.892,36.312c3.551,3.158,9.866,5.524,16.577,5.524C231.316,197.379,248.684,162.648,258.549,146.069
	z M199.741,122.786c-7.896-1.187-24.075,36.707-18.946,59.199c13.026-14.6,14.21-21.707,17.763-31.178
	C203.293,138.571,206.845,124.362,199.741,122.786z"/>
<path fill="#1A1A1A" d="M310.249,210.408c3.947-1.58,7.895,0.789,10.657,3.555c3.157,2.76-4.343,5.92-4.343,5.92
	s-3.157,1.58-7.896,5.131c-0.396,2.369-0.79,4.734-0.79,7.104c-1.579,13.422-0.791,29.209-1.579,43.418
	c-1.185,28.418-9.474,81.305-43.021,80.125c-20.128-0.793-28.417-23.287-26.443-38.682c7.498-54.469,43.812-86.441,61.966-99.463
	c0.79-11.447,1.977-25.658,3.159-39.079c-9.079,16.97-18.55,30.786-31.576,30.391c-14.604-0.395-23.285-14.602-21.312-37.101
	c2.369-23.288,9.079-43.021,16.182-40.259c6.71,2.367,3.552,12.63,3.158,12.63c0,0-5.922,21.709-5.922,33.155
	c0,11.447,0.396,22.498,6.312,22.101c14.999-0.785,28.023-29.208,35.132-48.148c3.153-23.684,11.05-31.576,16.972-29.604
	c3.552,1.186,8.289,6.314,4.342,17.367c-3.158,11.84-13.42,46.572-13.813,60.384C311.431,202.514,311.037,206.066,310.249,210.408z
	 M262.884,341.443c22.499,0,26.445-37.889,28.023-44.994c5.132-21.314,5.132-43.021,6.71-64.334
	c-19.34,14.605-46.574,41.842-47.76,79.334C249.465,318.558,247.097,341.443,262.884,341.443z"/>
<path fill="#1A1A1A" d="M343.39,168.966c1.579,5.92,4.345,11.046,7.105,15.39c0.788-0.397,1.578-0.397,2.369-0.397
	c14.208-1.18,18.155-10.652,18.155-22.89c0-22.497-7.896-28.417-12.235-36.312c-0.791,12.631-7.896,27.234-13.42,36.312
	c-1.578,2.763-9.867-1.185-7.104-6.708c2.367-5.132,10.265-16.578,14.209-41.049c1.186-8.684,3.156-15.787,10.657-15.787
	c13.418,0.393,11.445,15.787,11.84,22.102c0.396,8.685,11.447,35.127,11.052,43.812c-1.974,19.734-16.972,31.181-28.021,29.208
	c5.92,5.526,13.42,8.288,21.709,8.288c29.207,0,47.757-37.103,57.229-53.679c3.555-6.314,9.078,2.764,1.186,18.551
	c-3.157,5.525-24.471,48.942-63.151,46.575c-26.838-1.578-38.68-18.947-44.206-41.838c0,0,0-5.522,5.525-7.104
	C341.417,161.858,342.602,166.596,343.39,168.966z"/>
<path fill="#1A1A1A" d="M471.262,213.562c-24.861,0.791-43.809-16.577-42.625-42.625c0.791-25.656,18.157-61.18,47.366-59.996
	c13.418,0.395,20.918,8.684,20.918,20.131c0,12.234-6.314,18.154-10.658,22.496c-2.367,2.369-6.709,5.131-10.654,2.369
	c-1.977-1.578-0.791-7.501,1.576-10.656c5.922-7.5,9.078-21.314-1.576-22.105c-15-0.787-30.395,19.736-31.186,43.816
	c-0.787,23.68,5.922,34.333,28.814,34.728c36.311,0.396,53.283-38.284,62.756-54.863c3.553-6.71,9.08,1.578,1.184,17.365
	C535.994,166.993,515.469,211.988,471.262,213.562z"/>
<path fill="#1A1A1A" d="M604.662,210.408c-23.683,0.395-27.234-23.682-27.234-23.682s-14.207,26.047-28.021,25.655
	c-7.5,0-26.445-6.711-21.707-43.813c4.732-37.102,29.602-53.679,42.23-53.283c22.892,0.789,20.917,20.522,20.523,22.496
	c-3.158,10.264-7.105,7.5-9.869,6.315c0,0,2.369-16.577-11.049-16.97c-11.447-0.396-22.896,16.97-26.844,34.731
	c-4.342,18.153-1.576,36.708,7.896,36.708c14.604,0,26.838-39.47,28.416-49.337c0.791-3.945,15.396-0.791,14.605,5.525
	c-0.396,0-14.605,42.23,11.842,42.23c11.84,0,27.23-12.232,48.15-50.521c3.553-6.314,9.078,2.764,0.787,18.158
	C647.681,177.253,627.949,210.015,604.662,210.408z"/>
<path fill="#1A1A1A" d="M727.402,146.86c3.945-6.314,9.076,2.764,0.791,18.159c-2.768,5.522-23.686,48.943-61.973,46.968
	c-46.568-2.369-47.756-54.077-47.359-97.491c0.395-38.287,23.287-116.437,53.68-114.462c19.338,1.183,26.445,24.866,20.52,63.546
	c-7.5,52.494-38.281,104.197-50.916,118.801c7.105,11.052,16.977,17.765,28.42,17.765
	C699.378,200.145,718.326,163.438,727.402,146.86z M672.144,14.639c-14.998-1.184-36.311,47.362-41.441,100.646
	c-1.188,16.182,1.186,43.416,6.311,57.629c20.527-29.604,26.846-44.998,41.053-101.045C680.83,61.606,687.144,15.429,672.144,14.639
	z"/>
<path fill="#1A1A1A" d="M782.65,146.069c3.555-6.312,8.684,2.764,0.395,18.553c-2.764,5.523-23.289,47.366-53.285,46.969
	c-35.918-0.789-40.26-29.209-39.471-50.125c0.789-20.92,19.736-63.153,41.443-49.733c16.184,10.657,7.104,29.603,1.578,43.812
	c-6.314,16.182-17.367,29.602-22.893,36.312c3.551,3.158,9.867,5.524,16.576,5.524C755.416,197.379,772.785,162.648,782.65,146.069z
	 M723.839,122.786c-7.895-1.187-24.076,36.707-18.945,59.199c13.023-14.6,14.211-21.707,17.764-31.178
	C727.394,138.571,730.947,124.362,723.839,122.786z"/>
<path fill="#1A1A1A" d="M838.291,168.966c1.576,5.92,4.344,11.046,7.104,15.39c0.789-0.397,1.578-0.397,2.369-0.397
	c14.211-1.18,18.158-10.652,18.158-22.89c0-22.497-7.895-28.417-12.238-36.312c-0.791,12.631-7.893,27.234-13.42,36.312
	c-1.576,2.763-9.865-1.185-7.104-6.708c2.365-5.132,10.26-16.578,14.207-41.049c1.188-8.684,3.16-15.787,10.66-15.787
	c13.416,0.393,11.439,15.787,11.84,22.102c0.395,8.685,11.445,35.127,11.051,43.812c-1.973,19.734-16.971,31.181-28.025,29.208
	c5.922,5.526,13.422,8.288,21.707,8.288c29.207,0,47.764-37.103,57.236-53.679c3.549-6.314,9.072,2.764,1.18,18.551
	c-3.15,5.525-24.467,48.942-63.146,46.575c-26.84-1.578-38.682-18.947-44.207-41.838c0,0,0-5.522,5.525-7.104
	C836.316,161.858,837.5,166.596,838.291,168.966z"/>
<path fill="#1A1A1A" d="M958.66,205.271c-29.207-1.178-31.572-38.278-30.787-58.018c0.395-12.234,6.316-48.547,10.662-74.598
	h-61.186c0,0-11.443-0.394-11.443-5.921c0.395-8.288,11.844-5.13,14.213-5.13l60.389-0.395c1.576-9.473,3.152-15.79,3.152-16.185
	c1.58-6.708,2.371-10.262,8.688-8.288c3.555,1.185,5.92,9.473,5.527,13.025c0,0-0.396,3.947-1.188,11.842l62.357-0.395
	c0,0,9.477-1.578,9.477,4.736c-0.396,6.709-13.027,6.709-13.027,6.709h-60.781c-0.785,6.709-1.973,14.604-3.156,23.682
	c-1.182,7.5-8.684,42.627-9.473,53.68c-0.791,11.05,1.576,41.837,17.764,43.021c24.467,1.976,39.469-29.208,48.549-45.784
	c3.551-6.314,9.07,2.369,1.18,18.156C1006.812,170.939,990.234,206.853,958.66,205.271z"/>
<path fill="#1A1A1A" d="M1101.925,146.86c2.762-5.13,7.502,0,4.734,9.867c-4.34,13.025-20.521,30.785-50.125,24.079
	c-5.521,17.76-17.365,33.941-37.1,32.757c-18.943-1.186-24.076-23.284-22.893-37.5c1.182-14.207,9.072-44.6,22.102-46.572
	c1.582-7.894,7.107-14.207,17.762-14.996c10.264-0.791,26.84,11.84,24.076,46.178c0,2.367-0.396,4.738-0.789,7.105
	c13.025,5.133,29.207,3.553,38.287-14.209L1101.925,146.86z M1022.988,202.12c9.863,0.787,18.553-13.026,22.104-25.26
	c-11.051-6.317-19.336-16.185-23.682-28.026c-4.342,3.16-11.049,20.526-11.445,28.42
	C1009.566,185.936,1009.962,201.327,1022.988,202.12z M1037.593,127.915c-6.715,0.396-7.502,9.867-5.135,16.576
	c1.973,6.711,7.5,13.025,15,17.76C1047.853,148.046,1047.068,127.126,1037.593,127.915z"/>
<path fill="#1A1A1A" d="M1113.759,146.069c-1.975,4.342-5.523,9.869-11.055,19.342c-2.365,3.555-8.285-3.945-4.732-11.051
	c2.367-4.342,3.557-7.5,7.5-13.814c1.576-2.369,0.787-1.58,0.787-9.473c0-12.63,3.947-26.84,11.055-26.051
	c5.922,0.396,9.074,9.867,8.682,12.631c0,3.551-3.945,7.498-1.977,9.473c1.58,1.974,4.348,0.789,5.527,0.394
	c2.365-1.183,10.66-7.498,19.732-2.368c5.527,3.159,3.555,13.025,3.555,14.211c-0.787,9.075-5.922,8.684-5.922,25.657
	c-0.395,16.966,1.582,30.786,17.369,30.786c18.945,0,36.707-31.972,46.18-48.55c3.156-6.313,9.076,2.369,1.184,18.158
	c-3.152,5.526-22.494,44.997-49.729,43.415c-29.604-1.578-31.18-31.967-31.18-39.467c-1.189-18.156,5.52-24.867,3.15-27.236
	c-4.34-3.551-4.34,2.764-9.471,2.764C1119.289,144.888,1115.339,142.519,1113.759,146.069z"/>
<path fill="#1A1A1A" d="M1235.312,211.988c-30.785,0.393-33.945-36.317-33.15-43.419c0.785-8.685,3.945-26.444,3.945-26.444
	c2.76-7.104,14.996-6.315,14.996,0.789c0,1.974-14.996,57.626,15.783,56.046c20.918-0.785,40.654-36.311,49.732-52.89
	c3.553-6.707,9.08,2.368,1.186,18.155C1285.041,169.751,1263.333,211.988,1235.312,211.988z M1223.472,112.915
	c-0.793,5.527-5.92,9.475-11.844,8.685c-7.496-1.183-9.076-7.499-8.684-11.444c0-3.555,3.947-13.421,12.238-12.238
	C1223.869,99.103,1224.259,107.392,1223.472,112.915z"/>
<path fill="#1A1A1A" d="M1342.267,146.069c3.557-6.312,8.684,2.764,0.396,18.553c-2.76,5.523-23.287,47.366-53.279,46.969
	c-35.922-0.789-40.262-29.209-39.475-50.125c0.793-20.92,19.732-63.153,41.443-49.733c16.184,10.657,7.104,29.603,1.578,43.812
	c-6.314,16.182-17.369,29.602-22.893,36.312c3.551,3.158,9.867,5.524,16.574,5.524
	C1315.035,197.379,1332.4,162.648,1342.267,146.069z M1283.457,122.786c-7.895-1.187-24.078,36.707-18.945,59.199
	c13.025-14.6,14.207-21.707,17.766-31.178C1287.009,138.571,1290.56,124.362,1283.457,122.786z"/>
<path fill="#1A1A1A" d="M1342.654,168.966c1.582,5.92,4.34,11.046,7.104,15.39c0.785-0.397,1.576-0.397,2.367-0.397
	c14.205-1.18,18.152-10.652,18.152-22.89c0-22.497-7.895-28.417-12.232-36.312c-0.791,12.631-7.893,27.234-13.422,36.312
	c-1.578,2.763-9.865-1.185-7.104-6.708c2.365-5.132,10.266-16.578,14.211-41.049c1.18-8.684,3.152-15.787,10.652-15.787
	c13.42,0.393,11.447,15.787,11.84,22.102c0.396,8.685,11.447,35.127,11.055,43.812c-1.975,19.734-16.975,31.181-28.023,29.208
	c5.92,5.526,13.422,8.288,21.711,8.288c29.207,0,47.754-37.103,57.23-53.679c3.555-6.314,9.082,2.764,1.188,18.551
	c-3.16,5.525-24.475,48.942-63.154,46.575c-26.838-1.578-38.682-18.947-44.205-41.838c0,0,0-5.522,5.523-7.104
	C1340.679,161.858,1341.867,166.596,1342.654,168.966z"/>
</svg>
