<?xml version="1.0" encoding="utf-8"?>
<!-- Generator: Adobe Illustrator 16.0.0, SVG Export Plug-In . SVG Version: 6.00 Build 0)  -->
<!DOCTYPE svg PUBLIC "-//W3C//DTD SVG 1.1//EN" "http://www.w3.org/Graphics/SVG/1.1/DTD/svg11.dtd">
<svg version="1.1" id="Capa_1" xmlns="http://www.w3.org/2000/svg" xmlns:xlink="http://www.w3.org/1999/xlink" x="0px" y="0px"
	 width="800px" height="800px" viewBox="0 0 800 800" enable-background="new 0 0 800 800" xml:space="preserve">
<g>
	<path fill="#E5E5E5" d="M400,0C179.085,0,0,179.088,0,400s179.085,400,400,400c220.915,0,400-179.088,400-400S620.915,0,400,0z
		 M600.198,299.727l0.347,13.178c0,134.531-103.396,289.651-292.553,289.651c-58.071,0-112.103-16.876-157.614-45.81
		c8.05,0.9,16.226,1.4,24.525,1.4c48.173,0,92.526-16.221,127.703-43.512c-44.979-0.806-82.943-30.236-96.036-70.704
		c6.296,1.237,12.717,1.891,19.357,1.891c9.396,0,18.481-1.273,27.095-3.567c-47.015-9.367-82.472-50.52-82.472-99.829v-1.269
		c13.875,7.628,29.724,12.216,46.576,12.776c-27.564-18.232-45.731-49.402-45.731-84.722c0-18.668,5.044-36.162,13.907-51.169
		c50.711,61.588,126.48,102.119,211.927,106.372c-1.755-7.444-2.663-15.231-2.663-23.198c0-56.193,46.042-101.783,102.828-101.783
		c29.6,0,56.288,12.345,75.049,32.161c23.43-4.588,45.422-13.054,65.34-24.717c-7.707,23.725-23.958,43.697-45.199,56.286
		c20.8-2.448,40.596-7.937,59.044-16.034C637.877,267.534,620.4,285.458,600.198,299.727z"/>
</g>
</svg>
