<?xml version="1.0" encoding="utf-8"?>
<!-- Generator: Adobe Illustrator 16.0.0, SVG Export Plug-In . SVG Version: 6.00 Build 0)  -->
<!DOCTYPE svg PUBLIC "-//W3C//DTD SVG 1.1//EN" "http://www.w3.org/Graphics/SVG/1.1/DTD/svg11.dtd">
<svg version="1.1" id="Capa_1" xmlns="http://www.w3.org/2000/svg" xmlns:xlink="http://www.w3.org/1999/xlink" x="0px" y="0px"
	 width="800px" height="800px" viewBox="-150 -150 800 800" enable-background="new -150 -150 800 800" xml:space="preserve">
<g>
	<polygon fill="#E5E5E5" points="417.737,110.434 82.266,110.434 250,252.523 	"/>
	<path fill="#E5E5E5" d="M264.561,302.484l-29.125-0.002c-4.629,0-9.125-1.645-12.661-4.629L50.317,152.256v230.631
		c0,3.561,4.219,6.68,9.029,6.68h381.309c4.81,0,9.029-3.119,9.032-6.674V152.25L277.223,297.854
		C273.686,300.839,269.188,302.484,264.561,302.484z"/>
	<path fill="#E5E5E5" d="M250-150C29.085-150-150,29.087-150,250c0,220.912,179.085,400,400,400c220.915,0,400-179.088,400-400
		C650,29.087,470.915-150,250-150z M500.001,382.889c0,31.43-26.621,56.992-59.345,56.992H59.346
		C26.623,439.881,0,414.318,0,382.889V117.111c0-31.425,26.623-56.992,59.346-56.992h381.309c32.724,0,59.345,25.567,59.346,56.992
		V382.889z"/>
</g>
</svg>
