<?xml version="1.0" encoding="utf-8"?>
<!-- Generator: Adobe Illustrator 16.0.0, SVG Export Plug-In . SVG Version: 6.00 Build 0)  -->
<!DOCTYPE svg PUBLIC "-//W3C//DTD SVG 1.1//EN" "http://www.w3.org/Graphics/SVG/1.1/DTD/svg11.dtd">
<svg version="1.1" id="Capa_1" xmlns="http://www.w3.org/2000/svg" xmlns:xlink="http://www.w3.org/1999/xlink" x="0px" y="0px"
	 width="500px" height="500px" viewBox="0 0 500 500" enable-background="new 0 0 500 500" xml:space="preserve">
<path fill="#6F6F6F" d="M500,94.982c-18.402,8.155-38.148,13.685-58.896,16.154c21.186-12.686,37.399-32.807,45.086-56.708
	c-19.87,11.748-41.806,20.278-65.177,24.902c-18.715-19.965-45.335-32.4-74.86-32.4c-56.646,0-102.573,45.929-102.573,102.543
	c0,8.029,0.906,15.872,2.656,23.371c-85.233-4.281-160.813-45.117-211.397-107.168c-8.842,15.123-13.873,32.744-13.873,51.553
	c0,35.587,18.122,66.988,45.617,85.358c-16.81-0.562-32.619-5.186-46.46-12.873v1.281c0,49.678,35.369,91.139,82.266,100.575
	c-8.592,2.312-17.653,3.594-27.026,3.594c-6.624,0-13.029-0.656-19.309-1.906c13.06,40.773,50.928,70.424,95.795,71.236
	c-35.088,27.495-79.33,43.836-127.383,43.836c-8.279,0-16.435-0.5-24.464-1.406c45.398,29.151,99.294,46.148,157.22,46.148
	c188.683,0,291.821-156.283,291.821-291.821l-0.345-13.278C468.85,133.6,486.283,115.541,500,94.982z"/>
</svg>
