<?xml version="1.0" encoding="utf-8"?>
<!-- Generator: Adobe Illustrator 16.0.0, SVG Export Plug-In . SVG Version: 6.00 Build 0)  -->
<!DOCTYPE svg PUBLIC "-//W3C//DTD SVG 1.1//EN" "http://www.w3.org/Graphics/SVG/1.1/DTD/svg11.dtd">
<svg version="1.1" id="Capa_1" xmlns="http://www.w3.org/2000/svg" xmlns:xlink="http://www.w3.org/1999/xlink" x="0px" y="0px"
	 width="500px" height="500px" viewBox="0 0 500 500" enable-background="new 0 0 500 500" xml:space="preserve">
<path fill="#6F6F6F" d="M440.655,60.119H59.346C26.623,60.119,0,85.686,0,117.111v265.778c0,31.429,26.623,56.992,59.346,56.992
	h381.31c32.724,0,59.345-25.563,59.345-56.992V117.111C500,85.686,473.379,60.119,440.655,60.119z M440.655,389.566H59.346
	c-4.81,0-9.029-3.119-9.029-6.679V152.256l172.457,145.598c3.536,2.984,8.032,4.629,12.661,4.629l29.125,0.002
	c4.627,0,9.125-1.646,12.662-4.631L449.688,152.25v230.643C449.685,386.447,445.465,389.566,440.655,389.566z M250,252.523
	L82.266,110.434h335.471L250,252.523z"/>
</svg>
