<?xml version="1.0" encoding="utf-8"?>
<!-- Generator: Adobe Illustrator 16.0.0, SVG Export Plug-In . SVG Version: 6.00 Build 0)  -->
<!DOCTYPE svg PUBLIC "-//W3C//DTD SVG 1.1//EN" "http://www.w3.org/Graphics/SVG/1.1/DTD/svg11.dtd">
<svg version="1.1" id="Capa_1" xmlns="http://www.w3.org/2000/svg" xmlns:xlink="http://www.w3.org/1999/xlink" x="0px" y="0px"
	 width="800px" height="800px" viewBox="-184.943 -184.943 800 800" enable-background="new -184.943 -184.943 800 800"
	 xml:space="preserve">
<g>
	<path fill="#E5E5E5" d="M216-184C-4.915-184-184-4.913-184,216c0,220.912,179.085,400,400,400c220.915,0,400-179.088,400-400
		C616-4.913,436.915-184,216-184z M315.418,75.386c-18.738,0-38.971,0-48.557,0c-9.604,0-19.321,9.954-19.321,17.354
		c0,7.384,0,49.511,0,49.511s60,0,67.784,0c-2.713,37.964-8.316,72.685-8.316,72.685h-59.805v215.178h-89.122V214.93h-43.385
		v-72.412h43.385c0,0,0-48.379,0-59.218c0-10.82-2.203-83.304,91.315-83.299c12.545,0,41.006,0,66.021,0
		C315.418,31.462,315.418,65.527,315.418,75.386z"/>
</g>
</svg>
