<?xml version="1.0" encoding="utf-8"?>
<!-- Generator: Adobe Illustrator 16.0.0, SVG Export Plug-In . SVG Version: 6.00 Build 0)  -->
<!DOCTYPE svg PUBLIC "-//W3C//DTD SVG 1.1//EN" "http://www.w3.org/Graphics/SVG/1.1/DTD/svg11.dtd">
<svg version="1.1" id="Capa_1" xmlns="http://www.w3.org/2000/svg" xmlns:xlink="http://www.w3.org/1999/xlink" x="0px" y="0px"
	 width="800px" height="800px" viewBox="-184.941 -184.941 800 800" enable-background="new -184.941 -184.941 800 800"
	 xml:space="preserve">
<g>
	<path fill="#E5E5E5" d="M240.857,183.448v-0.896c-0.188,0.294-0.432,0.611-0.605,0.896H240.857z"/>
	<path fill="#E5E5E5" d="M216-184C-4.915-184-184-4.913-184,216c0,220.912,179.085,400,400,400c220.915,0,400-179.088,400-400
		C616-4.913,436.915-184,216-184z M97.661,420.56H5.477V143.24h92.184V420.56z M51.575,105.403h-0.616
		C20.038,105.403,0,84.082,0,57.463C0,30.251,20.635,9.558,52.183,9.558c31.551,0,50.945,20.693,51.551,47.905
		C103.734,84.086,83.734,105.403,51.575,105.403z M430.117,420.56H337.93V272.193c0-37.271-13.334-62.708-46.703-62.708
		c-25.474,0-40.633,17.142-47.302,33.724c-2.432,5.93-3.058,14.18-3.058,22.479V420.56h-92.219c0,0,1.242-251.285,0-277.316h92.209
		v39.309c12.252-18.869,34.131-45.824,83.103-45.824c60.673-0.004,106.157,39.633,106.157,124.815V420.56z"/>
</g>
</svg>
