<?xml version="1.0" encoding="utf-8"?>
<!-- Generator: Adobe Illustrator 16.0.0, SVG Export Plug-In . SVG Version: 6.00 Build 0)  -->
<!DOCTYPE svg PUBLIC "-//W3C//DTD SVG 1.1//EN" "http://www.w3.org/Graphics/SVG/1.1/DTD/svg11.dtd">
<svg version="1.1" id="Capa_1" xmlns="http://www.w3.org/2000/svg" xmlns:xlink="http://www.w3.org/1999/xlink" x="0px" y="0px"
	 width="800px" height="800px" viewBox="-184.941 -184.941 800 800" enable-background="new -184.941 -184.941 800 800"
	 xml:space="preserve">
<g>
	<path fill="#E5E5E5" d="M132.056,278.604c23.273-20.988,54.741-42.067,94.693-55.301c-3.19-7.63-6.419-14.98-9.68-22.041
		C157.241,219.965,98.207,222.76,64.395,222.98h-0.042c-7.414,0-13.573-0.151-18.376-0.329c-0.047,0.82-0.075,1.616-0.075,2.399
		c0.013,40.831,15.013,78.115,39.765,107.13C94.511,318.819,109.649,298.809,132.056,278.604z"/>
	<path fill="#E5E5E5" d="M64.375,184.909c0.856,0.009,1.729,0.009,2.611,0.009c30.937,0.009,82.066-3.507,132.842-18.473
		c-24.967-46.888-48.342-76.92-60.018-90.573c-43.739,21.427-76.824,61.027-88.894,108.844c3.74,0.111,8.22,0.193,13.43,0.193
		H64.375z"/>
	<path fill="#E5E5E5" d="M318.994,95.108c-28.816-22.86-65.212-36.594-104.888-36.594c-12.271,0-24.194,1.435-35.747,3.975
		c14.593,18.497,35.942,48.758,58.035,91.054C267.838,140.177,296.943,121.246,318.994,95.108z"/>
	<path fill="#E5E5E5" d="M215.059-184.941c-220.915,0-400,179.087-400,400c0,220.912,179.085,400,400,400
		c220.915,0,400-179.088,400-400C615.059-5.854,435.974-184.941,215.059-184.941z M214.106,438.5
		C95.033,438.5-1.482,342.924-1.482,225.05c0-117.894,96.515-213.456,215.589-213.465c119.073,0.009,215.593,95.571,215.606,213.465
		C429.699,342.924,333.18,438.5,214.106,438.5z"/>
	<path fill="#E5E5E5" d="M153.198,311.206c-20.311,19.24-33.066,37.863-39.015,47.564c27.988,20.568,62.49,32.824,99.923,32.824
		c21.035,0,41.12-3.896,59.71-10.904c-8.824-45.719-20.408-86.336-33.209-121.867C202.942,270.965,174.095,291.376,153.198,311.206z
		"/>
	<path fill="#E5E5E5" d="M253.153,187.907c3.788,8.281,7.55,16.93,11.259,25.936c15.268-2.684,31.465-4.234,48.727-4.234h0.158
		v0.005c21.438,0,44.438,2.49,68.773,7.603c-1.658-35.761-14.832-68.508-35.865-94.953
		C319.79,152.116,287.154,173.139,253.153,187.907z"/>
	<path fill="#E5E5E5" d="M313.222,247.684h-0.028h-0.436c-12.104,0-23.572,0.877-34.496,2.428
		c11.78,33.277,22.51,70.562,31.044,111.91c35.923-24.531,61.685-62.453,69.96-106.49c-23.907-5.378-45.955-7.848-66.016-7.848
		H313.222z"/>
</g>
</svg>
